<?xml version="1.0" encoding="UTF-8"?>
<svg xmlns="http://www.w3.org/2000/svg" xmlns:xlink="http://www.w3.org/1999/xlink" width="265px" height="265px" viewBox="0 0 265 265" version="1.1">
<g id="surface1">
<path style="fill:none;stroke-width:2;stroke-linecap:butt;stroke-linejoin:miter;stroke:rgb(0%,0%,0%);stroke-opacity:1;stroke-dasharray:5,5;stroke-miterlimit:4;" d="M 133.684788 133.770563 L 109.496138 264.42982 " transform="matrix(0.500945,0,0,0.500945,0,0)"/>
<path style="fill-rule:nonzero;fill:rgb(0%,0%,0%);fill-opacity:1;stroke-width:1;stroke-linecap:butt;stroke-linejoin:miter;stroke:rgb(0%,0%,0%);stroke-opacity:1;stroke-miterlimit:4;" d="M -14.997184 7.497997 L -0.000761302 0.00323823 L -14.997773 -7.49801 Z M -14.997184 7.497997 " transform="matrix(-0.0911894,0.492575,-0.492575,-0.0911894,55.946838,126.555358)"/>
<path style="fill:none;stroke-width:2;stroke-linecap:butt;stroke-linejoin:miter;stroke:rgb(0%,0%,100%);stroke-opacity:1;stroke-miterlimit:4;" d="M 109.496138 264.42982 L 133.715979 395.081279 " transform="matrix(0.500945,0,0,0.500945,0,0)"/>
<path style="fill-rule:nonzero;fill:rgb(0%,0%,100%);fill-opacity:1;stroke-width:1;stroke-linecap:butt;stroke-linejoin:miter;stroke:rgb(0%,0%,100%);stroke-opacity:1;stroke-miterlimit:4;" d="M -15.000842 7.49658 L -0.0023477 -0.0017057 L -14.99729 -7.499428 Z M -15.000842 7.49658 " transform="matrix(0.0912868,0.492557,-0.492557,0.0912868,65.889999,192.005218)"/>
<path style="fill:none;stroke-width:2;stroke-linecap:butt;stroke-linejoin:miter;stroke:rgb(0%,0%,100%);stroke-opacity:1;stroke-miterlimit:4;" d="M 133.715979 395.081279 L 264.375236 419.30112 " transform="matrix(0.500945,0,0,0.500945,0,0)"/>
<path style="fill-rule:nonzero;fill:rgb(0%,0%,100%);fill-opacity:1;stroke-width:1;stroke-linecap:butt;stroke-linejoin:miter;stroke:rgb(0%,0%,100%);stroke-opacity:1;stroke-miterlimit:4;" d="M -14.997285 7.502297 L -0.00249961 0.00426088 L -15.002572 -7.501378 Z M -14.997285 7.502297 " transform="matrix(0.492555,0.0912971,-0.0912971,0.492555,126.525058,208.951254)"/>
<path style="fill:none;stroke-width:2;stroke-linecap:butt;stroke-linejoin:miter;stroke:rgb(0%,0%,100%);stroke-opacity:1;stroke-miterlimit:4;" d="M 264.375236 419.30112 L 395.034493 395.120268 " transform="matrix(0.500945,0,0,0.500945,0,0)"/>
<path style="fill-rule:nonzero;fill:rgb(0%,0%,100%);fill-opacity:1;stroke-width:1;stroke-linecap:butt;stroke-linejoin:miter;stroke:rgb(0%,0%,100%);stroke-opacity:1;stroke-miterlimit:4;" d="M -15.003982 7.500707 L 0.000485466 0.00045421 L -15.002397 -7.502968 Z M -15.003982 7.500707 " transform="matrix(0.492578,-0.0911755,0.0911755,0.492578,191.929407,199.034977)"/>
<path style="fill:none;stroke-width:2;stroke-linecap:butt;stroke-linejoin:miter;stroke:rgb(0%,0%,100%);stroke-opacity:1;stroke-miterlimit:4;" d="M 395.034493 395.120268 L 419.121772 264.437618 " transform="matrix(0.500945,0,0,0.500945,0,0)"/>
<path style="fill-rule:nonzero;fill:rgb(0%,0%,100%);fill-opacity:1;stroke-width:1;stroke-linecap:butt;stroke-linejoin:miter;stroke:rgb(0%,0%,100%);stroke-opacity:1;stroke-miterlimit:4;" d="M -15.002928 7.503389 L 0.00377737 0.00277748 L -15.001703 -7.49887 Z M -15.002928 7.503389 " transform="matrix(0.0908315,-0.492642,0.492642,0.0908315,208.857664,138.431296)"/>
<path style="fill:none;stroke-width:2;stroke-linecap:butt;stroke-linejoin:miter;stroke:rgb(0%,0%,0%);stroke-opacity:1;stroke-dasharray:5,5;stroke-miterlimit:4;" d="M 419.121772 264.437618 L 395.050088 133.762765 " transform="matrix(0.500945,0,0,0.500945,0,0)"/>
<path style="fill-rule:nonzero;fill:rgb(0%,0%,0%);fill-opacity:1;stroke-width:1;stroke-linecap:butt;stroke-linejoin:miter;stroke:rgb(0%,0%,0%);stroke-opacity:1;stroke-miterlimit:4;" d="M -15.001997 7.499023 L 0.000298463 0.00149899 L -14.999098 -7.501823 Z M -15.001997 7.499023 " transform="matrix(-0.0907151,-0.492663,0.492663,-0.0907151,198.98757,72.918252)"/>
<path style="fill:none;stroke-width:2;stroke-linecap:butt;stroke-linejoin:miter;stroke:rgb(100%,0%,0%);stroke-opacity:1;stroke-miterlimit:4;" d="M 395.050088 133.762765 L 264.367438 109.706677 " transform="matrix(0.500945,0,0,0.500945,0,0)"/>
<path style="fill-rule:nonzero;fill:rgb(100%,0%,0%);fill-opacity:1;stroke-width:1;stroke-linecap:butt;stroke-linejoin:miter;stroke:rgb(100%,0%,0%);stroke-opacity:1;stroke-miterlimit:4;" d="M -15.00159 7.496765 L -0.0000127041 0.00264984 L -15.00154 -7.496412 Z M -15.00159 7.496765 " transform="matrix(-0.492672,-0.0906646,0.0906646,-0.492672,138.394285,56.055992)"/>
<path style="fill:none;stroke-width:2;stroke-linecap:butt;stroke-linejoin:miter;stroke:rgb(100%,0%,0%);stroke-opacity:1;stroke-miterlimit:4;" d="M 264.367438 109.706677 L 133.684788 133.770563 " transform="matrix(0.500945,0,0,0.500945,0,0)"/>
<path style="fill-rule:nonzero;fill:rgb(100%,0%,0%);fill-opacity:1;stroke-width:1;stroke-linecap:butt;stroke-linejoin:miter;stroke:rgb(100%,0%,0%);stroke-opacity:1;stroke-miterlimit:4;" d="M -15.001527 7.499338 L 0.000846282 0.0019699 L -14.998472 -7.501508 Z M -15.001527 7.499338 " transform="matrix(-0.492662,0.0907202,-0.0907202,-0.492662,72.930283,65.914956)"/>
<path style="fill-rule:nonzero;fill:rgb(100%,0%,0%);fill-opacity:1;stroke-width:2;stroke-linecap:butt;stroke-linejoin:miter;stroke:rgb(0%,0%,0%);stroke-opacity:1;stroke-miterlimit:4;" d="M 145.68554 133.770563 C 145.68554 140.398659 140.312883 145.771315 133.684788 145.771315 C 127.056692 145.771315 121.684036 140.398659 121.684036 133.770563 C 121.684036 127.142468 127.056692 121.769811 133.684788 121.769811 C 140.312883 121.769811 145.68554 127.142468 145.68554 133.770563 Z M 145.68554 133.770563 " transform="matrix(0.500945,0,0,0.500945,0,0)"/>
<path style="fill-rule:nonzero;fill:rgb(100%,100%,100%);fill-opacity:1;stroke-width:2;stroke-linecap:butt;stroke-linejoin:miter;stroke:rgb(0%,0%,100%);stroke-opacity:1;stroke-miterlimit:4;" d="M 121.49689 264.42982 C 121.49689 271.057916 116.124233 276.430572 109.496138 276.430572 C 102.868042 276.430572 97.495386 271.057916 97.495386 264.42982 C 97.495386 257.801725 102.868042 252.429068 109.496138 252.429068 C 116.124233 252.429068 121.49689 257.801725 121.49689 264.42982 Z M 121.49689 264.42982 " transform="matrix(0.500945,0,0,0.500945,0,0)"/>
<path style="fill-rule:nonzero;fill:rgb(100%,100%,100%);fill-opacity:1;stroke-width:2;stroke-linecap:butt;stroke-linejoin:miter;stroke:rgb(0%,0%,100%);stroke-opacity:1;stroke-miterlimit:4;" d="M 145.716731 395.081279 C 145.716731 401.709375 140.344074 407.082031 133.715979 407.082031 C 127.087883 407.082031 121.715227 401.709375 121.715227 395.081279 C 121.715227 388.460982 127.087883 383.088325 133.715979 383.088325 C 140.344074 383.088325 145.716731 388.460982 145.716731 395.081279 Z M 145.716731 395.081279 " transform="matrix(0.500945,0,0,0.500945,0,0)"/>
<path style="fill-rule:nonzero;fill:rgb(100%,100%,100%);fill-opacity:1;stroke-width:2;stroke-linecap:butt;stroke-linejoin:miter;stroke:rgb(0%,0%,100%);stroke-opacity:1;stroke-miterlimit:4;" d="M 276.36819 419.30112 C 276.36819 425.929216 270.995534 431.301872 264.375236 431.301872 C 257.74714 431.301872 252.374484 425.929216 252.374484 419.30112 C 252.374484 412.673025 257.74714 407.300369 264.375236 407.300369 C 270.995534 407.300369 276.36819 412.673025 276.36819 419.30112 Z M 276.36819 419.30112 " transform="matrix(0.500945,0,0,0.500945,0,0)"/>
<path style="fill-rule:nonzero;fill:rgb(100%,100%,100%);fill-opacity:1;stroke-width:2;stroke-linecap:butt;stroke-linejoin:miter;stroke:rgb(0%,0%,100%);stroke-opacity:1;stroke-miterlimit:4;" d="M 407.035245 395.120268 C 407.035245 401.740566 401.662588 407.113222 395.034493 407.113222 C 388.406397 407.113222 383.033741 401.740566 383.033741 395.120268 C 383.033741 388.492173 388.406397 383.119517 395.034493 383.119517 C 401.662588 383.119517 407.035245 388.492173 407.035245 395.120268 Z M 407.035245 395.120268 " transform="matrix(0.500945,0,0,0.500945,0,0)"/>
<path style="fill-rule:nonzero;fill:rgb(0%,0%,100%);fill-opacity:1;stroke-width:2;stroke-linecap:butt;stroke-linejoin:miter;stroke:rgb(0%,0%,0%);stroke-opacity:1;stroke-miterlimit:4;" d="M 431.122524 264.437618 C 431.122524 271.065713 425.749867 276.43837 419.121772 276.43837 C 412.493676 276.43837 407.12102 271.065713 407.12102 264.437618 C 407.12102 257.809522 412.493676 252.436866 419.121772 252.436866 C 425.749867 252.436866 431.122524 257.809522 431.122524 264.437618 Z M 431.122524 264.437618 " transform="matrix(0.500945,0,0,0.500945,0,0)"/>
<path style="fill-rule:nonzero;fill:rgb(100%,100%,100%);fill-opacity:1;stroke-width:2;stroke-linecap:butt;stroke-linejoin:miter;stroke:rgb(100%,0%,0%);stroke-opacity:1;stroke-miterlimit:4;" d="M 407.05084 133.762765 C 407.05084 140.390861 401.678184 145.763517 395.050088 145.763517 C 388.421993 145.763517 383.049337 140.390861 383.049337 133.762765 C 383.049337 127.13467 388.421993 121.762014 395.050088 121.762014 C 401.678184 121.762014 407.05084 127.13467 407.05084 133.762765 Z M 407.05084 133.762765 " transform="matrix(0.500945,0,0,0.500945,0,0)"/>
<path style="fill-rule:nonzero;fill:rgb(100%,100%,100%);fill-opacity:1;stroke-width:2;stroke-linecap:butt;stroke-linejoin:miter;stroke:rgb(100%,0%,0%);stroke-opacity:1;stroke-miterlimit:4;" d="M 276.36819 109.706677 C 276.36819 116.334773 270.995534 121.707429 264.367438 121.707429 C 257.739343 121.707429 252.366686 116.334773 252.366686 109.706677 C 252.366686 103.08638 257.739343 97.713723 264.367438 97.713723 C 270.995534 97.713723 276.36819 103.08638 276.36819 109.706677 Z M 276.36819 109.706677 " transform="matrix(0.500945,0,0,0.500945,0,0)"/>
</g>
</svg>
